<svg width="100" height="100" viewBox="0 0 100 100" fill="none" xmlns="http://www.w3.org/2000/svg">
      <rect width="100" height="100" rx="20" fill="#4B2E2B"/>
      <path d="M62.5234 25H37.4766C33.3585 25 30 28.3585 30 32.4766V67.5234C30 71.6415 33.3585 75 37.4766 75H62.5234C66.6415 75 70 71.6415 70 67.5234V32.4766C70 28.3585 66.6415 25 62.5234 25Z" stroke="#D9A441" stroke-width="5"/>
      <path d="M40 50C40 44.4772 44.4772 40 50 40C55.5228 40 60 44.4772 60 50C60 55.5228 55.5228 60 50 60" stroke="#F7EFE1" stroke-width="4" stroke-linecap="round"/>
      <path d="M50 60C44.4772 60 40 64.4772 40 70" stroke="#F7EFE1" stroke-width="4" stroke-linecap="round"/>
      <path d="M50 30C50 28.5733 50.2273 27.2067 50.6441 26" stroke="#541B3D" stroke-width="3" stroke-linecap="round"/>
    </svg>